<?xml version="1.0" encoding="UTF-8" standalone="no"?>
<svg
   width="24"
   height="24"
   fill-rule="evenodd"
   clip-rule="evenodd"
   version="1.1"
   id="svg4"
   xmlns="http://www.w3.org/2000/svg"
   xmlns:svg="http://www.w3.org/2000/svg">
  <defs
     id="defs8" />
  <path
     d="M12 10c-1.104 0-2-.896-2-2s.896-2 2-2 2 .896 2 2-.896 2-2 2m0-5c-1.657 0-3 1.343-3 3s1.343 3 3 3 3-1.343 3-3-1.343-3-3-3m-7 2.602c0-3.517 3.271-6.602 7-6.602s7 3.085 7 6.602c0 3.455-2.563 7.543-7 14.527-4.489-7.073-7-11.072-7-14.527m7-7.602c-4.198 0-8 3.403-8 7.602 0 4.198 3.469 9.21 8 16.398 4.531-7.188 8-12.2 8-16.398 0-4.199-3.801-7.602-8-7.602"
     id="path2" />
  <path
     style="fill:{{color}};stroke-width:0.031;stroke-miterlimit:4;stroke-dasharray:none;fill-opacity:1"
     d="M 11.408018,21.163398 C 8.2715715,16.192827 7.1011171,14.17853 6.2181171,12.231822 5.105551,9.7790006 4.7763491,7.8073681 5.2043893,6.1604747 6.0274221,2.9938387 9.3337787,0.72203895 12.64301,1.0493934 c 2.901872,0.2870577 5.457146,2.4118296 6.153734,5.1169766 0.265194,1.0298647 0.233133,2.2119356 -0.0953,3.5136209 -0.576875,2.2863331 -1.966402,4.9322561 -5.632979,10.7262591 -0.489449,0.773437 -0.926464,1.466016 -0.971146,1.539062 -0.04468,0.07305 -0.08837,0.132514 -0.09709,0.132149 -0.0087,-3.66e-4 -0.275213,-0.411694 -0.592209,-0.914063 z M 12.724232,10.926137 C 13.788467,10.646551 14.571028,9.894005 14.896763,8.8369325 14.975388,8.5817794 14.981329,8.5229831 14.981329,8 c 0,-0.5229831 -0.0059,-0.5817794 -0.08457,-0.8369325 -0.543578,-1.7640131 -2.394238,-2.6367444 -4.0923,-1.9298397 -0.8968427,0.3733566 -1.5989286,1.2584638 -1.7716199,2.2334491 -0.042258,0.2385843 -0.042258,0.8280618 0,1.0666462 0.2167909,1.2239653 1.1912799,2.2001959 2.4311939,2.4355379 0.326354,0.06194 0.941117,0.0411 1.260195,-0.04272 z"
     id="path141" />
</svg>
